<?xml version='1.0' encoding='UTF-8'?>
<!-- Created with Inkscape (http://www.inkscape.org/) -->
<svg xmlns:inkscape="http://www.inkscape.org/namespaces/inkscape" xmlns:sodipodi="http://sodipodi.sourceforge.net/DTD/sodipodi-0.dtd" xmlns="http://www.w3.org/2000/svg" xmlns:svg="http://www.w3.org/2000/svg" width="297mm" height="210mm" viewBox="0 0 297 210" version="1.1" id="svg5" xml:space="preserve">
  <defs id="defs2">
    <rect x="69.295167" y="144.7666" width="80.700496" height="25.869216" id="rect5489"/>
  </defs>
  <g id="layer1" data-name="CONNECTIONS">
    <path style="opacity:0.55;fill:none;stroke:#000000;stroke-width:1.065;stroke-dasharray:none;stroke-dashoffset:0" d="M 94.902797,27.678557 66.926642,39.471695" id="path2630"/>
    <path style="opacity:0.55;fill:none;stroke:#000000;stroke-width:1.065;stroke-dasharray:none;stroke-dashoffset:0" d="M 99.618169,31.130898 64.345269,54.53703" id="path2632"/>
    <path style="opacity:0.55;fill:none;stroke:#000000;stroke-width:1.065;stroke-dasharray:none;stroke-dashoffset:0" d="M 105.4453,40.0099 86.289808,61.460099" id="path2635"/>
    <path style="opacity:0.55;fill:none;stroke:#000000;stroke-width:1.065;stroke-dasharray:none;stroke-dashoffset:0" d="m 108.25135,33.861716 18.3237,16.0948" id="path2637"/>
    <path style="opacity:0.55;fill:none;stroke:#000000;stroke-width:1.065;stroke-dasharray:none;stroke-dashoffset:0" d="m 124.48316,76.023281 7.41456,17.265441" id="path2639"/>
    <path style="opacity:0.55;fill:none;stroke:#000000;stroke-width:1.065;stroke-dasharray:none;stroke-dashoffset:0" d="M 143.28265,55.816243 124.0385,72.450216" id="path2641"/>
    <path style="opacity:0.55;fill:none;stroke:#000000;stroke-width:1.065;stroke-dasharray:none;stroke-dashoffset:0" d="m 127.02079,75.180377 h 21.05565" id="path2644"/>
    <path style="opacity:0.55;fill:none;stroke:#000000;stroke-width:1.065;stroke-dasharray:none;stroke-dashoffset:0" d="m 147.52551,71.506103 1.37833,-16.684188" id="path2646"/>
    <path style="opacity:0.55;fill:none;stroke:#000000;stroke-width:1.065;stroke-dasharray:none;stroke-dashoffset:0" d="m 155.24806,96.414607 1.62186,24.454453" id="path2648"/>
    <path style="opacity:0.55;fill:none;stroke:#000000;stroke-width:1.065;stroke-dasharray:none;stroke-dashoffset:0" d="m 127.77202,105.63125 2.53763,15.00644" id="path2650"/>
    <path style="opacity:0.55;fill:none;stroke:#000000;stroke-width:1.065;stroke-dasharray:none;stroke-dashoffset:0" d="m 128.68137,129.6481 -25.14703,5.93186" id="path2653"/>
    <path style="opacity:0.55;fill:none;stroke:#000000;stroke-width:1.065;stroke-dasharray:none;stroke-dashoffset:0" d="m 165.43981,180.92853 20.50343,-2.48482" id="path2655"/>
    <path style="opacity:0.55;fill:none;stroke:#000000;stroke-width:1.065;stroke-dasharray:none;stroke-dashoffset:0" d="m 172.56239,156.16797 13.34826,19.4825" id="path2657"/>
    <path style="opacity:0.55;fill:none;stroke:#000000;stroke-width:1.065;stroke-dasharray:none;stroke-dashoffset:0" d="m 173.82528,140.64419 8.12519,-13.76803" id="path2659"/>
    <path style="opacity:0.55;fill:none;stroke:#000000;stroke-width:1.065;stroke-dasharray:none;stroke-dashoffset:0" d="m 255.51688,64.883386 13.33939,13.763488" id="path3387"/>
    <path style="opacity:0.55;fill:none;stroke:#000000;stroke-width:1.065;stroke-dasharray:none;stroke-dashoffset:0" d="m 249.27626,80.952998 17.39709,2.51614" id="path3389"/>
    <path style="opacity:0.55;fill:none;stroke:#000000;stroke-width:1.065;stroke-dasharray:none;stroke-dashoffset:0" d="m 242.80971,128.86794 1.52589,17.71051" id="path3391"/>
    <path style="opacity:0.55;fill:none;stroke:#000000;stroke-width:1.065;stroke-dasharray:none;stroke-dashoffset:0" d="m 244.19993,148.33332 19.63985,-4.19082" id="path3393"/>
    <path style="opacity:0.55;fill:none;stroke:#000000;stroke-width:1.065;stroke-dasharray:none;stroke-dashoffset:0" d="m 266.37043,146.67858 1.19163,19.23274" id="path3395"/>
    <path style="opacity:0.55;fill:none;stroke:#000000;stroke-width:1.065;stroke-dasharray:none;stroke-dashoffset:0" d="m 262.03324,147.12373 -12.54583,24.56936" id="path3397"/>
    <path style="opacity:0.55;fill:none;stroke:#000000;stroke-width:1.065;stroke-dasharray:none;stroke-dashoffset:0" d="M 246.67469,172.00819 241.0371,153.40913" id="path4125"/>
    <path style="fill:#000000;stroke:#000000;stroke-width:1.065;stroke-dasharray:none;stroke-opacity:1" d="m 130.91065,49.634724 13.69286,3.608739" id="path2169"/>
    <path style="fill:#000000;stroke:#000000;stroke-width:1.065;stroke-dasharray:none;stroke-opacity:1" d="m 125.5064,53.751482 -3.52089,10.445983" id="path2725"/>
    <path style="fill:#000000;stroke:#000000;stroke-width:1.065;stroke-dasharray:none;stroke-opacity:1" d="m 280.9146,31.928162 16.11056,-0.169971" id="path2727"/>
    <path style="fill:#000000;stroke:#000000;stroke-width:1.065;stroke-dasharray:none;stroke-opacity:1" d="m 11.889438,40.54584 -12.67347141,0.0091" id="path2729"/>
  </g>
  <g id="australia" style="display:inline" data-name="AUSTRALIA">
    <g id="western_australia" data-name="WESTERN_AUSTRALIA">
      <path id="western_australia_2" style="opacity:1;fill:#ff00ff;fill-opacity:1;stroke:#000000;stroke-width:0.265;stroke-dasharray:none;stroke-opacity:1" d="m 268.92105,194.18195 0.79169,-18.73891 -11.07995,-0.85576 -0.23616,-9.82731 -1.05523,-4.99556 -0.17674,0.47439 -1.5012,-1.64745 -3.03909,2.096 -1.66036,1.41593 -1.07332,0.13643 -2.18746,2.95641 -2.37402,0.55449 c 0,0 -1.98969,1.42712 -2.29133,1.81694 -0.30164,0.38982 -1.80919,1.31103 -1.80919,1.31103 l -1.96009,0.17622 -0.25683,3.16621 -0.4961,1.66708 -1.12654,1.65055 1.52394,3.18947 0.62115,2.1947 -0.0997,2.61482 0.0822,2.11822 -0.78135,0.709 0.15348,1.25677 2.54765,1.8464 1.84226,0.26303 4.41472,-0.98236 3.18275,-2.39934 1.34979,0.97668 1.05368,-0.71106 0.52503,-1.45366 2.6541,-0.39223 1.96113,-0.49661 1.84174,0.24805 2.16938,1.36891 0.71934,1.09451 0.80046,-0.82218 1.87741,-2.08514 0.17208,1.51515 -1.43557,2.24793 -0.83716,1.46916 1.7477,-0.0227 c 0,0 0.77987,-0.0731 0.22737,0.26303 -0.55247,0.33608 -2.19779,1.0387 -2.19779,1.0387 l -0.0568,0.9927 h 1.86242 c 0,0 1.56373,-0.33945 1.56373,0.0651 0,0.40451 -0.26355,1.80195 -0.26355,1.80195 l 2.1363,0.76068 z" data-name="WESTERN_AUSTRALIA"/>
      <text xml:space="preserve" style="font-style:normal;font-variant:normal;font-weight:normal;font-stretch:normal;font-size:7.05556px;font-family:sans-serif;font-variant-caps:normal;font-variant-numeric:normal;font-variant-east-asian:normal;display:inline;opacity:1;fill:#000000;stroke:none;stroke-width:0.264999;stroke-dasharray:none;stroke-dashoffset:0;stroke-opacity:1" x="242.75244" y="178.88728" id="count" data-name="COUNT">100</text>
    </g>
    <g id="eastern_australia" data-name="EASTERN_AUSTRALIA">
      <path id="eastern_australia_2" style="opacity:1;fill:#ff00ff;fill-opacity:1;stroke:#000000;stroke-width:0.265;stroke-dasharray:none;stroke-opacity:1" d="m 264.77195,154.2402 -2.3244,0.43615 -0.59635,1.60972 -2.00866,0.42685 -0.73898,-2.14199 -1.33583,0.68833 0.98237,1.05058 -1.04232,2.4691 -0.36638,0.98547 1.05523,4.99556 0.23616,9.82731 11.07995,0.85576 -0.79169,18.73891 1.28726,-0.19534 0.69092,-1.26039 2.26911,0.62063 c 0,0 -0.17406,0.89655 0.21549,0.71056 0.38954,-0.186 3.65817,-1.42111 3.65817,-1.42111 l 1.41852,-1.06505 0.35295,-2.60604 2.15956,-3.45819 1.18132,-2.29805 1.26866,-1.18442 0.21084,-2.85564 0.59583,-1.66812 -0.27285,-3.1197 c 0,0 -0.35125,-1.05972 -0.52762,-1.77095 -0.17637,-0.71123 -1.31051,-2.97398 -1.31051,-2.97398 l -1.08779,-0.89194 -1.12138,0.16898 -0.51625,-2.32389 -0.28474,-1.09605 -1.52497,-0.7798 0.0791,-2.2257 -1.12603,-2.07998 -0.22014,-1.12293 -1.9265,-0.16691 -0.0351,-1.8464 -0.35243,-2.13114 -1.09658,0.57568 -0.16691,2.37608 -0.68058,1.57045 -1.32085,2.682 -1.78335,-0.22479 c 0,0 -1.29973,-1.24863 -1.98283,-1.85312 -0.68308,-0.60449 -1.65054,-1.04438 -1.65054,-1.04438 l 1.66088,-1.35444 1.7663,-0.51934 -0.56896,-0.99839 -1.94562,-1.00201 z" data-name="EASTERN_AUSTRALIA"/>
      <text xml:space="preserve" style="font-style:normal;font-variant:normal;font-weight:normal;font-stretch:normal;font-size:7.05556px;font-family:sans-serif;font-variant-caps:normal;font-variant-numeric:normal;font-variant-east-asian:normal;display:inline;opacity:1;fill:#000000;stroke:none;stroke-width:0.264999;stroke-dasharray:none;stroke-dashoffset:0;stroke-opacity:1" x="264.68604" y="171.56287" id="count_2" data-name="COUNT">100</text>
    </g>
    <g id="indonesia" data-name="INDONESIA">
      <path id="indonesia_2" style="display:inline;opacity:1;fill:#ff00ff;fill-opacity:1;stroke:#000000;stroke-width:0.265;stroke-dasharray:none;stroke-opacity:1" d="m 244.08588,137.72493 -2.05879,0.216 -0.1633,2.04019 -1.8774,1.96577 -1.51826,2.1022 -3.08353,1.28054 -1.09813,2.81688 -1.43247,-0.3452 -1.17408,-1.83089 -3.40496,-2.12132 -4.88653,-2.18901 -0.81132,1.19372 1.5937,1.94097 1.79111,1.27434 0.34365,3.40134 2.46393,2.33836 1.19786,3.01997 3.97288,4.88704 2.42104,-0.33434 -0.009,-1.90428 0.4687,-1.56993 -1.90737,-1.47485 c 0,0 -1.28034,-1.84804 -1.83968,-2.49803 -0.55935,-0.65 1.97507,0.29869 1.97507,0.29869 l 2.68769,2.42879 1.85983,0.89142 1.82522,0.21807 1.71824,-1.14618 1.4304,2.72645 1.15445,-0.005 1.59629,-0.26045 0.99735,0.19482 1.95234,-0.80099 -0.34158,-0.89762 -1.22473,-2.99361 1.54047,-1.2299 v -0.90796 l -1.90531,-0.007 c 0,0 0.0677,-0.67997 0.15761,-1.63608 0.0899,-0.9561 1.66037,-0.23461 1.66037,-0.23461 l 2.26291,-1.18649 -0.17622,-1.44177 -3.11144,0.7028 -2.1394,0.3979 -1.49913,1.37822 -0.24598,-0.91778 0.70538,-1.90479 -0.26252,-2.06396 1.91255,-1.52962 0.13901,-1.88826 -1.18701,-1.26039 z m -3.57395,19.81584 -2.05568,0.75913 -1.89188,2.80344 0.97772,0.82166 3.13159,-0.8878 1.16944,1.40095 3.52278,-1.15704 4.51911,-1.14773 -3.93671,-0.44184 -2.51561,-1.28364 z" data-name="INDONESIA"/>
      <text xml:space="preserve" style="font-style:normal;font-variant:normal;font-weight:normal;font-stretch:normal;font-size:7.05556px;font-family:sans-serif;font-variant-caps:normal;font-variant-numeric:normal;font-variant-east-asian:normal;display:inline;opacity:1;fill:#000000;stroke:none;stroke-width:0.264999;stroke-dasharray:none;stroke-dashoffset:0;stroke-opacity:1" x="233.7187" y="152.82661" id="count_3" data-name="COUNT">100</text>
    </g>
    <g id="papua_new_guinea" data-name="PAPUA_NEW_GUINEA">
      <path style="opacity:1;fill:#ff00ff;fill-opacity:1;stroke:#000000;stroke-width:0.265;stroke-dasharray:none;stroke-opacity:1" d="m 251.47252,137.15695 1.76777,2.52151 0.33594,2.00358 1.20995,1.81883 2.16667,-0.64393 1.90324,1.05506 -0.18632,2.52004 0.66498,1.83214 2.84527,0.87807 3.29567,0.89128 2.63671,-0.15516 1.29669,-1.47259 2.56434,1.56885 0.16529,1.29166 3.70141,-0.092 -0.99052,-2.50272 -0.0882,-3.23349 -1.6065,-0.97332 -1.17679,-2.03316 -0.35274,-2.048 -2.35543,-2.25788 -2.46634,-0.42776 -1.87465,-1.78647 -3.81526,-0.0882 -1.23347,2.42975 -1.33724,-0.0139 -1.01727,-1.82524 -3.64925,-1.16705 z" id="papua_new_guinea_2" data-name="PAPUA_NEW_GUINEA"/>
      <text xml:space="preserve" style="font-style:normal;font-variant:normal;font-weight:normal;font-stretch:normal;font-size:7.05556px;font-family:sans-serif;font-variant-caps:normal;font-variant-numeric:normal;font-variant-east-asian:normal;display:inline;opacity:1;fill:#000000;stroke:none;stroke-width:0.264999;stroke-dasharray:none;stroke-dashoffset:0;stroke-opacity:1" x="258.31946" y="146.05028" id="count_4" data-name="COUNT">100</text>
    </g>
  </g>
  <g id="asia" style="display:inline" data-name="ASIA">
    <g id="souheast_asia" data-name="SOUHEAST_ASIA">
      <path id="southeast_asia" style="display:inline;opacity:1;fill:#00ff00;stroke:#000000;stroke-width:0.265;stroke-dasharray:none" d="m 229.10126,107.69937 -0.10955,0.57619 -1.61541,2.46342 -1.04231,1.74356 0.38447,2.71405 -2.24792,1.21181 -0.0951,0.8754 2.44275,-0.14315 0.40204,2.86236 0.17673,2.95021 2.03502,1.63814 1.52601,-1.06608 1.37821,1.22938 0.75551,2.86752 -0.2372,2.06086 2.09548,2.35128 0.78445,2.59209 1.78645,1.31723 1.89963,-0.93638 -0.48266,-3.14399 -1.40095,-2.45773 -0.88418,-1.9451 2.38073,1.12913 2.13424,2.58899 0.0884,2.05155 3.58272,-1.70584 1.58078,-2.91713 -1.12499,-3.81114 -0.88212,-4.82089 -0.54363,-1.01545 -2.4443,-3.12797 0.40566,-1.01441 2.55592,-1.08572 -0.35502,-0.69195 -1.03921,-1.8867 -3.05201,-0.24805 -3.23805,0.79168 -1.96009,0.24701 h -0.7338 l -0.23461,-1.99419 -2.81068,-1.6061 z" data-name="SOUTHEAST_ASIA"/>
      <text xml:space="preserve" style="font-style:normal;font-variant:normal;font-weight:normal;font-stretch:normal;font-size:7.05556px;font-family:sans-serif;font-variant-caps:normal;font-variant-numeric:normal;font-variant-east-asian:normal;display:inline;opacity:1;fill:#000000;stroke:none;stroke-width:0.264999;stroke-dasharray:none;stroke-dashoffset:0;stroke-opacity:1" x="229.06779" y="121.07434" id="count_5" data-name="COUNT">100</text>
    </g>
    <g id="india" data-name="INDIA">
      <path id="india_2" style="display:inline;opacity:1;fill:#00ff00;stroke:#000000;stroke-width:0.265;stroke-dasharray:none" d="m 203.58757,94.458317 -2.19263,0.864547 -0.96841,1.53634 -0.9307,0.930693 -2.4629,1.197343 -0.0465,1.43815 0.24908,3.1657 1.23403,1.00976 -1.06092,1.69034 1.47485,2.54299 -0.0646,2.28514 1.40198,2.66185 0.83613,-0.39584 1.20354,1.86087 1.25936,0.38085 -1.10019,2.79466 1.15238,1.3069 4.65346,0.34003 -1.16117,3.41788 0.93741,2.35541 1.97508,4.52996 1.72082,4.38578 2.07533,1.49241 1.13688,1.61902 2.33526,-3.45302 0.78703,-2.17661 0.47491,-1.84226 1.60507,-2.00866 -0.98186,-1.96681 0.29921,-3.54655 1.88774,-1.92495 0.64337,-1.24592 0.12661,-1.69499 1.84847,-0.69969 0.43976,-0.0258 0.0951,-0.8754 2.24792,-1.21181 -0.38447,-2.71405 1.04231,-1.74356 1.61541,-2.46342 0.10955,-0.57619 -1.83865,-0.63614 -3.40082,-0.74672 -3.82096,0.12454 -3.37085,-2.43603 -2.70733,-0.80305 -1.10484,-2.55333 1.87327,-2.112536 -0.99736,-2.889229 -3.20083,-0.81132 -1.53118,1.216463 -2.89904,-0.495577 z" data-name="INDIA"/>
      <text xml:space="preserve" style="font-style:normal;font-variant:normal;font-weight:normal;font-stretch:normal;font-size:7.05556px;font-family:sans-serif;font-variant-caps:normal;font-variant-numeric:normal;font-variant-east-asian:normal;display:inline;opacity:1;fill:#000000;stroke:none;stroke-width:0.264999;stroke-dasharray:none;stroke-dashoffset:0;stroke-opacity:1" x="206.67372" y="114.01205" id="count_6" data-name="COUNT">100</text>
    </g>
    <g id="middle_east" data-name="MIDDLE_EAST">
      <path id="middle_east_2" style="display:inline;opacity:1;fill:#00ff00;stroke:#000000;stroke-width:0.265;stroke-dasharray:none" d="m 200.22085,113.78117 -1.40198,-2.66185 0.0646,-2.28514 -1.47485,-2.54299 1.06092,-1.69034 -1.23403,-1.00976 -0.24908,-3.1657 0.0796,-2.451525 -3.72794,-2.105815 -3.39152,0.190686 0.12815,0.359668 -1.41025,1.423686 -3.60184,-1.550293 -1.42317,-1.292428 -2.67219,0.941545 -3.01532,0.35295 -1.7818,0.408761 -1.50069,0.176216 -3.21892,-1.149284 -5.22656,0.463538 h -2.50527 l -1.79524,-0.793233 -2.61741,2.798795 0.14056,2.633433 -1.10691,1.73943 2.32389,3.14761 0.73329,1.28312 2.00143,0.66973 3.24217,1.87586 0.9555,-1.67794 h 2.2841 l 0.96273,1.31465 0.15141,2.7342 v 1.79731 l -1.74821,0.99322 -0.87385,1.46192 1.37563,2.97812 0.108,0.38705 0.99581,-0.46767 2.95124,2.38022 2.65513,3.67678 2.44171,2.00659 0.66198,2.71043 1.60507,1.82366 0.66663,1.78129 -0.28888,1.6738 0.74983,0.6289 9.71052,-1.58595 0.65474,-4.25814 2.27738,-2.22467 1.56683,-3.51761 1.96164,-2.57142 -2.00763,-2.0004 -1.82573,-1.67638 -3.4985,0.65112 -1.51928,-1.08882 -1.35444,-2.4505 -1.68259,-3.30935 0.53589,-1.87586 2.5585,2.4536 1.8557,2.91352 1.67845,0.48575 3.06596,-0.34571 1.92546,-0.60978 z" data-name="MIDDLE_EAST"/>
      <text xml:space="preserve" style="font-style:normal;font-variant:normal;font-weight:normal;font-stretch:normal;font-size:7.05556px;font-family:sans-serif;font-variant-caps:normal;font-variant-numeric:normal;font-variant-east-asian:normal;display:inline;opacity:1;fill:#000000;stroke:none;stroke-width:0.264999;stroke-dasharray:none;stroke-dashoffset:0;stroke-opacity:1" x="172.15779" y="107.97336" id="count_7" data-name="COUNT">100</text>
    </g>
    <g id="afghanistan" data-name="AFGHANISTAN">
      <path id="afghanistan_2" style="display:inline;opacity:1;fill:#00ff00;stroke:#000000;stroke-width:0.265;stroke-dasharray:none" d="m 211.73023,78.096525 -1.35961,-0.922424 -0.70745,-1.345138 -3.21014,-0.623734 -3.8995,-0.810287 -1.22473,-3.175517 -3.26905,-2.778125 -1.12242,-2.194698 -1.63762,-1.449524 -0.0207,0.123507 -3.04788,4.194576 h -3.24476 l -4.34134,1.450041 -2.1854,1.485697 0.50333,4.037997 0.46251,4.328418 0.8356,0.659391 2.7926,-1.064535 0.447,1.973007 -1.62161,3.024104 1.51774,2.653068 1.40043,2.730066 -0.4315,1.513603 0.81287,1.002523 0.42013,2.175578 0.34779,0.974617 3.39152,-0.190686 3.72794,2.105815 -0.0331,1.013375 2.4629,-1.197343 0.9307,-0.930693 0.96841,-1.53634 2.19263,-0.864547 2.5151,1.098124 2.89904,0.495577 0.23048,-0.182934 0.49093,-2.752804 -2.10168,-3.557922 -0.11163,-1.353406 0.83871,-0.812354 2.12545,-2.092895 1.68156,-2.760555 -0.4253,-3.181201 z" data-name="AFGHANISTAN"/>
      <text xml:space="preserve" style="font-style:normal;font-variant:normal;font-weight:normal;font-stretch:normal;font-size:7.05556px;font-family:sans-serif;font-variant-caps:normal;font-variant-numeric:normal;font-variant-east-asian:normal;display:inline;opacity:1;fill:#000000;stroke:none;stroke-width:0.264999;stroke-dasharray:none;stroke-dashoffset:0;stroke-opacity:1" x="190.57703" y="85.926353" id="count_8" data-name="COUNT">100</text>
    </g>
    <g id="china" data-name="CHINA">
      <path id="china_2" style="display:inline;opacity:1;fill:#00ff00;stroke:#000000;stroke-width:0.265;stroke-dasharray:none" d="m 250.54388,87.176074 -4.59403,0.243396 -2.01228,-0.594796 -3.42047,-0.178283 -1.93115,-1.298629 h -4.20594 l -2.36575,-0.710551 -2.45308,-1.458309 -2.63395,-2.190564 -1.23351,-3.483508 -2.58176,-0.497127 c 0,0 -0.10706,-0.04476 -0.26768,-0.120923 -0.0803,-0.03808 -0.17401,-0.08418 -0.2744,-0.136426 -0.10039,-0.05225 -0.20763,-0.11046 -0.31471,-0.173633 -0.0535,-0.03159 -0.10698,-0.06448 -0.15968,-0.09819 -0.0527,-0.03371 -0.10484,-0.06845 -0.15503,-0.10387 -0.0502,-0.03542 -0.0987,-0.07179 -0.1447,-0.10852 -0.046,-0.03673 -0.0896,-0.07398 -0.1297,-0.111621 -0.0402,-0.03764 -0.0769,-0.07555 -0.10956,-0.113688 -0.0326,-0.03814 -0.0608,-0.07649 -0.0842,-0.114722 -0.0117,-0.01911 -0.0224,-0.03778 -0.0315,-0.05684 -0.009,-0.01906 -0.0165,-0.0384 -0.0227,-0.05736 -0.006,-0.01896 -0.0112,-0.03753 -0.0145,-0.05633 -0.003,-0.0188 -0.005,-0.03773 -0.005,-0.05633 0,-0.03719 -0.004,-0.07612 -0.0109,-0.116788 -0.007,-0.04067 -0.0176,-0.08323 -0.031,-0.126608 -0.0134,-0.04338 -0.0299,-0.0875 -0.0486,-0.132808 -0.0187,-0.04531 -0.0395,-0.09151 -0.0625,-0.137976 -0.023,-0.04646 -0.0481,-0.09319 -0.0744,-0.140043 -0.0263,-0.04685 -0.054,-0.0941 -0.0827,-0.14056 -0.0574,-0.09292 -0.11855,-0.184072 -0.17983,-0.270785 -0.0613,-0.08671 -0.12239,-0.169077 -0.17983,-0.243396 -0.0574,-0.07432 -0.11114,-0.140634 -0.1571,-0.19637 -0.0919,-0.111472 -0.15348,-0.179834 -0.15348,-0.179834 l -1.38286,-1.936316 -1.60145,0.843359 -1.15032,-1.749764 -1.17461,1.47743 -0.95963,2.101163 -2.41897,3.086634 v 1.521354 l 0.4253,3.181201 -1.68156,2.760555 -2.12545,2.092895 -0.83871,0.812354 0.11163,1.353406 2.10168,3.557922 -0.49093,2.752804 1.3007,-1.033529 3.20083,0.81132 0.99736,2.889229 -1.87327,2.112541 1.10484,2.55333 2.70733,0.80305 3.37085,2.43603 3.82096,-0.12454 3.40082,0.74672 3.70004,1.28003 2.81068,1.6061 0.23461,1.99419 h 0.7338 l 1.96009,-0.24701 3.23805,-0.79168 3.05201,0.24805 1.03921,1.8867 0.35502,0.69195 0.19172,-0.0811 2.62102,-2.93264 2.45567,-2.45101 1.82521,-2.98638 1.0387,-2.94453 -0.68627,-3.055113 0.70487,-1.930115 0.0853,-3.715019 -0.89091,-1.182873 -1.00459,-2.417424 -2.0779,-0.133325 2.67425,-1.702738 -0.35915,-0.839742 -0.016,-0.01757 z" data-name="CHINA"/>
      <text xml:space="preserve" style="font-style:normal;font-variant:normal;font-weight:normal;font-stretch:normal;font-size:7.05556px;font-family:sans-serif;font-variant-caps:normal;font-variant-numeric:normal;font-variant-east-asian:normal;display:inline;opacity:1;fill:#000000;stroke:none;stroke-width:0.264999;stroke-dasharray:none;stroke-dashoffset:0;stroke-opacity:1" x="228.35307" y="99.655891" id="count_9" data-name="COUNT">100</text>
    </g>
    <g id="mongolia" data-name="MONGOLIA">
      <path id="mongolia_2" style="display:inline;opacity:1;fill:#00ff00;stroke:#000000;stroke-width:0.265;stroke-dasharray:none" d="m 252.80369,69.204561 -1.13275,-0.586527 -2.5647,-1.626257 -1.84898,-1.349789 -3.8809,-0.613399 -0.82372,1.198376 -1.58647,1.914095 -3.09232,1.296562 c 0,0 -0.11025,-0.02295 -0.28525,-0.05788 -0.17501,-0.03493 -0.41504,-0.08159 -0.67438,-0.128157 -0.25934,-0.04657 -0.53816,-0.09323 -0.79116,-0.128158 -0.12651,-0.01746 -0.24659,-0.03219 -0.35451,-0.04237 -0.10792,-0.01019 -0.20363,-0.01602 -0.28163,-0.01602 -0.15601,0 -0.45954,-0.0074 -0.82734,-0.01912 -0.3678,-0.01169 -0.79994,-0.0273 -1.21233,-0.04289 -0.82479,-0.03118 -1.57148,-0.06253 -1.57148,-0.06253 l -2.77503,0.37362 -3.52691,-0.06666 -0.53899,-0.259416 -1.24385,2.08101 0.9679,2.474784 v 2.037602 l -0.88677,1.572514 1.8216,0.350883 1.23351,3.483508 2.63395,2.190564 2.45308,1.458309 2.36575,0.710551 h 4.20594 l 1.93115,1.298629 3.42047,0.178283 2.01228,0.594796 4.59403,-0.243396 -2.20813,-0.905888 -0.17209,-2.114082 1.22267,-0.467672 2.09961,0.07906 1.37925,-0.350366 0.6165,2.449979 2.10271,0.181901 -0.7183,2.838587 0.87901,0.656807 2.89492,-3.395141 1.02474,-1.846916 -1.82314,-2.57607 -1.90686,-2.510441 0.0894,-3.197221 1.14928,-1.064018 -2.08308,-0.598413 -1.4211,-0.922941 -1.37511,-2.17041 0.49299,-2.003496 z" data-name="MONGOLIA"/>
      <text xml:space="preserve" style="font-style:normal;font-variant:normal;font-weight:normal;font-stretch:normal;font-size:7.05556px;font-family:sans-serif;font-variant-caps:normal;font-variant-numeric:normal;font-variant-east-asian:normal;display:inline;opacity:1;fill:#000000;stroke:none;stroke-width:0.264999;stroke-dasharray:none;stroke-dashoffset:0;stroke-opacity:1" x="234.14627" y="79.464905" id="count_10" data-name="COUNT">100</text>
    </g>
    <g id="japan" data-name="JAPAN">
      <path style="opacity:1;fill:#00ff00;stroke:#000000;stroke-width:0.265;stroke-dasharray:none" d="m 270.37599,61.197854 -3.04012,0.22148 0.85892,3.419131 -1.6229,1.5195 0.67971,2.931144 1.42393,1.212493 -2.1559,3.946141 1.49897,1.185175 -1.41094,2.374574 -2.43837,1.90083 -0.23588,2.262497 -2.75044,2.406063 -1.05929,2.248794 -0.6863,2.305521 -1.58073,1.870766 2.46436,1.941875 3.09114,-2.956441 2.69388,-0.671158 1.97668,-3.103711 1.53852,-2.257425 c 0,0 2.19459,0.657646 2.88058,-0.129585 0.68601,-0.787231 2.2733,-3.25197 2.2733,-3.25197 l -0.63905,-3.017541 -1.20126,-2.191171 2.00355,-2.984589 -3.40233,-2.864631 -1.78964,-1.511824 2.63758,-0.269618 2.38707,-0.511474 1.02047,-3.900339 -0.36655,-0.680189 -3.20593,0.529098 z" id="japan_2" data-name="JAPAN"/>
      <text xml:space="preserve" style="font-style:normal;font-variant:normal;font-weight:normal;font-stretch:normal;font-size:7.05556px;font-family:sans-serif;font-variant-caps:normal;font-variant-numeric:normal;font-variant-east-asian:normal;display:inline;opacity:1;fill:#000000;stroke:none;stroke-width:0.264999;stroke-dasharray:none;stroke-dashoffset:0;stroke-opacity:1" x="262.40195" y="82.373344" id="count_11" data-name="COUNT">100</text>
    </g>
    <g id="irkutsk" data-name="IRKUTSK">
      <path id="irkutsk_2" style="display:inline;opacity:1;fill:#00ff00;stroke:#000000;stroke-width:0.265;stroke-dasharray:none" d="m 245.2703,44.238127 -2.06499,0.02377 -4.72219,1.382861 -1.68827,1.920813 -2.44223,0.04961 -0.7953,-0.181384 c 0.002,0.0028 0.0289,0.04548 0.0289,0.04548 l -1.60249,2.480469 -0.69143,2.399854 0.231,1.861385 -1.29657,1.932182 -0.75809,1.161169 -1.42627,-0.917773 -2.79621,2.38435 -1.64228,2.087211 -0.87281,3.170349 1.10587,1.95802 1.81953,1.952336 -0.62167,1.039213 0.53899,0.259416 3.52691,0.06666 2.77503,-0.37362 c 0,0 0.74669,0.03135 1.57148,0.06253 0.41239,0.01559 0.84453,0.0312 1.21233,0.04289 0.3678,0.01169 0.67133,0.01912 0.82734,0.01912 0.078,0 0.17371,0.0058 0.28163,0.01602 0.10792,0.01019 0.228,0.02491 0.35451,0.04237 0.25299,0.03493 0.53182,0.08159 0.79116,0.128158 0.25934,0.04657 0.49937,0.09323 0.67438,0.128157 0.175,0.03493 0.28525,0.05788 0.28525,0.05788 l 3.09232,-1.296562 1.58647,-1.914095 0.82372,-1.198376 3.8809,0.613399 1.84898,1.349789 2.5647,1.626257 1.13275,0.586527 0.64234,-2.153357 -0.86972,-2.928503 v -2.107365 l -1.7818,-2.280998 -2.84169,-0.438733 -0.92914,-0.365869 -1.67845,-2.651517 -1.0449,-3.141927 c 0,0 0.0456,-0.136103 0.12351,-0.347783 0.039,-0.10584 0.0859,-0.230706 0.13953,-0.366903 0.0536,-0.136194 0.11384,-0.283603 0.1788,-0.435115 0.065,-0.151512 0.13467,-0.307101 0.20774,-0.458887 0.0731,-0.151785 0.14943,-0.299649 0.22737,-0.436666 0.039,-0.06851 0.0783,-0.134374 0.11782,-0.19637 0.0396,-0.062 0.0796,-0.12003 0.11938,-0.173633 0.0398,-0.0536 0.0793,-0.102914 0.11885,-0.146244 0.0396,-0.04333 0.0794,-0.08096 0.11834,-0.112138 0.039,-0.03118 0.0712,-0.06798 0.0982,-0.109554 0.027,-0.04157 0.0483,-0.08765 0.0646,-0.137976 0.0163,-0.05033 0.0278,-0.104834 0.0346,-0.162264 0.007,-0.05743 0.009,-0.117978 0.008,-0.180868 -0.001,-0.06289 -0.007,-0.128118 -0.015,-0.19482 -0.008,-0.0667 -0.0197,-0.134736 -0.0336,-0.203605 -0.0278,-0.137738 -0.0654,-0.278434 -0.108,-0.414962 -0.0426,-0.136528 -0.0902,-0.269041 -0.13746,-0.39119 -0.0473,-0.122149 -0.0942,-0.233544 -0.13591,-0.328146 -0.0834,-0.189203 -0.14573,-0.310575 -0.14573,-0.310575 l 2.22932,-2.303219 -2.25361,-1.476395 z" data-name="IRKUTSK"/>
      <text xml:space="preserve" style="font-style:normal;font-variant:normal;font-weight:normal;font-stretch:normal;font-size:7.05556px;font-family:sans-serif;font-variant-caps:normal;font-variant-numeric:normal;font-variant-east-asian:normal;display:inline;opacity:1;fill:#000000;stroke:none;stroke-width:0.264999;stroke-dasharray:none;stroke-dashoffset:0;stroke-opacity:1" x="231.63744" y="62.276314" id="count_12" data-name="COUNT">100</text>
    </g>
    <g id="siberia" data-name="SIBERIA">
      <path id="siberia_2" style="display:inline;opacity:1;fill:#00ff00;stroke:#000000;stroke-width:0.265;stroke-dasharray:none" d="m 221.69396,17.58394 -7.14788,1.284676 -6.22856,2.292366 -1.46451,4.135148 -3.59462,0.271818 -1.67224,4.194576 -0.30231,3.114022 1.56011,1.939933 2.389,2.44998 0.48834,3.667993 2.84272,3.087667 0.74156,3.500045 1.82831,2.167826 -0.33383,2.13372 1.25677,2.41794 -0.24959,2.651001 0.87281,2.729033 -2.0252,2.577103 -0.062,1.808676 2.41277,0.418579 1.48467,1.931148 1.79575,2.906282 0.14935,2.138888 0.99839,1.51877 1.60145,-0.843359 1.38286,1.936316 c 0,0 0.0616,0.06836 0.15348,0.179834 0.046,0.05574 0.0996,0.122051 0.1571,0.19637 0.0574,0.07432 0.11855,0.156684 0.17983,0.243396 0.0613,0.08671 0.12239,0.177869 0.17983,0.270785 0.0287,0.04646 0.0564,0.09371 0.0827,0.14056 0.0263,0.04685 0.0514,0.09358 0.0744,0.140043 0.023,0.04646 0.0439,0.09267 0.0625,0.137976 0.0187,0.04531 0.0352,0.08943 0.0486,0.132808 0.0134,0.04338 0.0238,0.08594 0.031,0.126608 0.007,0.04067 0.0109,0.0796 0.0109,0.116788 0,0.0186 0.002,0.03753 0.005,0.05633 0.003,0.0188 0.008,0.03737 0.0145,0.05633 0.006,0.01896 0.0136,0.0383 0.0227,0.05736 0.009,0.01906 0.0198,0.03773 0.0315,0.05684 0.0234,0.03823 0.0516,0.07659 0.0842,0.114722 0.0326,0.03813 0.0694,0.07605 0.10956,0.113688 0.0402,0.03764 0.0837,0.07489 0.1297,0.111621 0.046,0.03673 0.0945,0.0731 0.1447,0.10852 0.0502,0.03542 0.10232,0.07016 0.15503,0.10387 0.0527,0.03371 0.10614,0.0666 0.15968,0.09819 0.10708,0.06317 0.21432,0.121382 0.31471,0.173633 0.10039,0.05225 0.19409,0.09834 0.2744,0.136426 0.16062,0.07616 0.26768,0.120923 0.26768,0.120923 l 0.76016,0.146244 0.88677,-1.572514 v -2.037602 l -0.9679,-2.474784 1.86552,-3.120223 -1.81953,-1.952336 -1.10587,-1.95802 0.87281,-3.170349 1.64228,-2.087211 2.79621,-2.38435 1.42627,0.917773 0.75809,-1.161169 1.29657,-1.932182 -0.231,-1.861385 0.69143,-2.399854 1.60249,-2.480469 c 0,0 -0.14478,-0.224409 -0.36225,-0.569474 -0.21748,-0.345065 -0.5074,-0.811233 -0.79737,-1.295528 -0.14498,-0.242148 -0.28989,-0.488726 -0.42581,-0.727087 -0.13593,-0.238361 -0.26282,-0.468117 -0.37156,-0.676962 -0.10873,-0.208845 -0.1996,-0.396754 -0.26303,-0.550354 -0.0317,-0.0768 -0.0564,-0.144924 -0.0734,-0.203088 -0.017,-0.05816 -0.0264,-0.106314 -0.0264,-0.142627 0,-0.2905 -0.0292,-1.302694 -0.0584,-2.24224 -0.0292,-0.939547 -0.0579,-1.806608 -0.0579,-1.806608 l -1.70687,-1.49655 -0.24753,-3.241146 2.00349,-1.166854 2.87476,-1.154968 0.59325,-2.068091 0.29301,-2.676322 -0.49248,-1.449007 -0.99787,-2.041736 -0.18914,-1.169438 -0.66352,0.278019 -3.93827,-0.529166 -0.88366,-1.386479 -1.6862,-1.899626 -0.42168,-0.913122 z" data-name="SIBERIA"/>
      <text xml:space="preserve" style="font-style:normal;font-variant:normal;font-weight:normal;font-stretch:normal;font-size:7.05556px;font-family:sans-serif;font-variant-caps:normal;font-variant-numeric:normal;font-variant-east-asian:normal;display:inline;opacity:1;fill:#000000;stroke:none;stroke-width:0.264999;stroke-dasharray:none;stroke-dashoffset:0;stroke-opacity:1" x="213.48041" y="47.429237" id="count_13" data-name="COUNT">100</text>
    </g>
    <g id="ural" data-name="URAL">
      <path id="ural_2" style="display:inline;opacity:1;fill:#00ff00;stroke:#000000;stroke-width:0.265;stroke-dasharray:none" d="m 216.43537,71.40236 -0.14935,-2.138888 -1.79575,-2.906282 -1.48467,-1.931148 -2.41277,-0.418579 0.062,-1.808676 2.0252,-2.577103 -0.87281,-2.729033 0.24959,-2.651001 -1.25677,-2.41794 0.33383,-2.13372 -1.82831,-2.167826 -0.74156,-3.500045 -2.84272,-3.087667 -0.48834,-3.667993 -2.389,-2.44998 -1.56011,-1.939933 -0.0749,0.769979 -2.43913,-1.62574 v -3.558956 l -3.87883,-2.903699 0.38602,7.245036 0.63872,6.254398 -1.96474,3.935161 v 4.562512 l 0.76068,3.029789 -0.8692,3.025655 v 3.554822 c 0,0 -1.60753,1.180457 -0.69556,1.779736 0.91196,0.599289 2.53266,3.582727 2.53266,3.582727 l -0.37982,2.269112 1.63762,1.449524 1.12242,2.194698 3.26905,2.778125 1.22473,3.175517 3.8995,0.810287 3.21014,0.623734 0.70745,1.345138 1.35961,0.922424 v -0.259932 l 2.41897,-3.086634 0.95963,-2.101163 1.17461,-1.47743 z" data-name="URAL"/>
      <text xml:space="preserve" style="font-style:normal;font-variant:normal;font-weight:normal;font-stretch:normal;font-size:7.05556px;font-family:sans-serif;font-variant-caps:normal;font-variant-numeric:normal;font-variant-east-asian:normal;display:inline;opacity:1;fill:#000000;stroke:none;stroke-width:0.264999;stroke-dasharray:none;stroke-dashoffset:0;stroke-opacity:1" x="196.18396" y="58.820442" id="count_14" data-name="COUNT">100</text>
    </g>
    <g id="yakutsk" data-name="YAKUTSK">
      <path id="yakutsk_2" style="display:inline;opacity:1;fill:#00ff00;stroke:#000000;stroke-width:0.265;stroke-dasharray:none" d="m 236.49564,20.42666 -1.43402,0.63562 -0.95911,1.39423 -0.82166,0.344682 0.18914,1.169438 0.99787,2.041736 0.49248,1.449007 -0.29301,2.676322 -0.59325,2.068091 -2.87476,1.154968 -2.00349,1.166854 0.24753,3.241146 1.70687,1.49655 c 0,0 0.0287,0.867064 0.0579,1.806608 0.0292,0.939543 0.0584,1.95174 0.0584,2.24224 0,0.03631 0.009,0.08446 0.0264,0.142627 0.017,0.05816 0.0417,0.126288 0.0734,0.203088 0.0634,0.1536 0.1543,0.341512 0.26303,0.550354 0.10874,0.208845 0.23563,0.438601 0.37156,0.676962 0.13592,0.238358 0.28083,0.484939 0.42581,0.727087 0.28997,0.484295 0.57989,0.950466 0.79737,1.295528 0.2001,0.317507 0.31245,0.491627 0.33331,0.523999 l 0.7953,0.181384 2.44223,-0.04961 1.68827,-1.920813 4.72219,-1.382861 2.06499,-0.02377 2.99465,-2.420008 3.84783,-2.988965 2.58434,-1.853116 -0.37569,-3.20704 0.93224,-4.420402 1.61386,-1.827278 0.54777,-0.731739 -0.0879,-2.362646 -0.41858,-0.08061 -0.66043,-0.951364 -2.06757,-0.09147 -1.45159,-1.756482 h -2.78691 l -0.82476,1.30328 -2.57969,-0.495577 -1.23455,0.532784 -1.19837,0.999939 -2.89182,0.855245 -1.73322,-0.01705 0.5612,-2.898532 -0.18242,-0.754992 z" data-name="YAKUTSK"/>
      <text xml:space="preserve" style="font-style:normal;font-variant:normal;font-weight:normal;font-stretch:normal;font-size:7.05556px;font-family:sans-serif;font-variant-caps:normal;font-variant-numeric:normal;font-variant-east-asian:normal;display:inline;opacity:1;fill:#000000;stroke:none;stroke-width:0.264999;stroke-dasharray:none;stroke-dashoffset:0;stroke-opacity:1" x="236.94965" y="35.659389" id="count_15" data-name="COUNT">100</text>
    </g>
    <g id="kamchatka" data-name="KAMCHATKA">
      <path id="kamchatka_2" style="display:inline;opacity:1;fill:#00ff00;stroke:#000000;stroke-width:0.265;stroke-dasharray:none" d="m 257.32745,24.426933 0.0879,2.362646 -0.54777,0.731739 -1.61386,1.827278 -0.93224,4.420402 0.37569,3.20704 -2.58434,1.853116 -3.84783,2.988965 -3.00809,2.43086 2.25361,1.476395 -2.22932,2.303219 c 0,0 0.0623,0.121372 0.14573,0.310575 0.0417,0.0946 0.0887,0.205997 0.13591,0.328146 0.0473,0.122149 0.0948,0.254662 0.13746,0.39119 0.0426,0.136528 0.0802,0.277224 0.108,0.414962 0.0139,0.06887 0.0253,0.136903 0.0336,0.203605 0.008,0.0667 0.0136,0.131931 0.015,0.19482 0.001,0.06289 -9.5e-4,0.123437 -0.008,0.180868 -0.007,0.05743 -0.0184,0.111938 -0.0346,0.162264 -0.0162,0.05033 -0.0376,0.0964 -0.0646,0.137976 -0.027,0.04157 -0.0592,0.07838 -0.0982,0.109554 -0.039,0.03118 -0.0788,0.06881 -0.11834,0.112138 -0.0396,0.04333 -0.0791,0.09264 -0.11885,0.146244 -0.0398,0.0536 -0.0798,0.111637 -0.11938,0.173633 -0.0396,0.062 -0.0788,0.127862 -0.11782,0.19637 -0.0779,0.137017 -0.1543,0.284881 -0.22737,0.436666 -0.0731,0.151786 -0.14279,0.307375 -0.20774,0.458887 -0.065,0.151512 -0.12522,0.298919 -0.1788,0.435115 -0.0536,0.136197 -0.10056,0.261063 -0.13953,0.366903 -0.0779,0.21168 -0.12351,0.347783 -0.12351,0.347783 l 1.0449,3.141927 1.67845,2.651517 0.92914,0.365869 2.84169,0.438733 1.7818,2.280998 v 2.107365 l 0.86972,2.928503 -0.65888,2.208134 -0.49299,2.003496 1.37511,2.17041 1.4211,0.922941 2.08308,0.598413 0.95808,-0.886768 2.07068,-4.99246 -0.49041,-5.109249 V 61.66807 l -0.80409,-3.851961 -1.64693,-2.914034 -1.53892,-1.62574 -1.52136,-0.160197 -2.93832,-0.850594 1.51567,-3.502112 1.54461,-1.527556 6.30401,-1.308964 2.31717,0.418063 1.18907,-2.018482 0.44184,-1.249019 2.1916,2.246891 1.60662,-3.527433 0.68884,2.090312 -1.21956,4.336169 -1.07539,2.396236 0.28422,3.262333 0.36122,3.410128 2.25981,1.490865 1.38028,-3.453536 1.84071,-1.830896 -1.82314,-2.982763 0.0408,-1.480013 -1.17047,-2.753837 2.48099,-2.51871 2.23242,0.129708 1.6154,-2.490804 2.87942,-1.997294 -0.97669,-2.322856 0.53847,-1.58905 4.43849,0.813904 1.21129,-1.980241 1.048,-2.474268 -1.41955,-1.808675 0.0971,-0.258899 -1.8495,-1.118278 -0.30592,0.485242 -1.32602,-0.254765 -0.45527,-1.83348 -4.23488,-1.04128 -3.27112,-2.274796 -4.41007,0.666109 -2.13475,1.015442 -3.12126,-1.09089 -1.66294,-0.722436 -1.64745,1.260388 z" data-name="KAMCHATKA"/>
      <text xml:space="preserve" style="font-style:normal;font-variant:normal;font-weight:normal;font-stretch:normal;font-size:7.05556px;font-family:sans-serif;font-variant-caps:normal;font-variant-numeric:normal;font-variant-east-asian:normal;display:inline;opacity:1;fill:#000000;stroke:none;stroke-width:0.264999;stroke-dasharray:none;stroke-dashoffset:0;stroke-opacity:1" x="259.9856" y="36.188282" id="count_16" data-name="COUNT">100</text>
    </g>
  </g>
  <g id="africa" style="display:inline" data-name="AFRICA">
    <g id="north_africa" data-name="NORTH_AFRICA">
      <path id="north_africa_2" style="display:inline;opacity:1;fill:#ff6600;fill-opacity:1;stroke:#000000;stroke-width:0.265;stroke-dasharray:none;stroke-opacity:1" d="m 143.49873,109.72819 -5.84202,1.66863 -4.24315,1.19372 -5.16041,0.81132 -5.04362,4.30207 -2.73626,4.35012 -0.33177,2.38487 0.69247,3.55017 0.24288,5.47046 0.37413,2.69028 1.4485,1.55133 0.95032,2.61689 3.86695,3.35742 1.87276,1.22266 2.97397,1.69396 4.86327,-0.35916 2.76004,-1.48053 3.03806,1.541 3.2861,1.09864 -0.18035,2.19986 h 2.88665 l 3.54965,-1.12396 v -3.96772 c 0,-0.0234 0.003,-0.049 0.008,-0.0765 0.005,-0.0274 0.0132,-0.0567 0.0233,-0.0879 0.01,-0.0311 0.0222,-0.0642 0.0367,-0.0987 0.0145,-0.0345 0.0314,-0.0709 0.0501,-0.10852 0.0187,-0.0376 0.0395,-0.0764 0.062,-0.11679 0.0226,-0.0404 0.0468,-0.0822 0.0729,-0.12506 0.0522,-0.0857 0.111,-0.17598 0.17518,-0.26975 0.0642,-0.0938 0.13369,-0.19103 0.20723,-0.29042 0.0735,-0.0994 0.15128,-0.20078 0.23151,-0.30334 0.0802,-0.10256 0.16277,-0.20625 0.24701,-0.30954 0.0842,-0.10329 0.17023,-0.20641 0.2558,-0.30799 0.17114,-0.20317 0.34184,-0.4002 0.50229,-0.58188 0.16045,-0.18167 0.31038,-0.34769 0.43874,-0.48834 0.25671,-0.2813 0.42788,-0.46147 0.42788,-0.46147 l 2.98276,-1.98128 0.21652,-3.54655 0.12351,-5.1077 -1.47588,-2.27376 -5.02398,-1.41749 -5.23741,-2.57813 -0.12402,-2.92799 -0.0915,-5.67872 1.37305,-3.07475 -0.73898,-0.70125 z" data-name="NORTH_AFRICA"/>
      <text xml:space="preserve" style="font-style:normal;font-variant:normal;font-weight:normal;font-stretch:normal;font-size:7.05556px;font-family:sans-serif;font-variant-caps:normal;font-variant-numeric:normal;font-variant-east-asian:normal;display:inline;opacity:1;fill:#000000;stroke:none;stroke-width:0.264999;stroke-dasharray:none;stroke-dashoffset:0;stroke-opacity:1" x="130.23058" y="132.36856" id="count_17" data-name="COUNT">100</text>
    </g>
    <g id="egypt" data-name="EGYPT">
      <path id="egypt_2" style="display:inline;opacity:1;fill:#ff6600;fill-opacity:1;stroke:#000000;stroke-width:0.265;stroke-dasharray:none;stroke-opacity:1" d="m 148.24832,112.28772 -1.37305,3.07475 0.0915,5.67872 0.12402,2.92799 5.23741,2.57813 5.02398,1.41749 1.19735,1.84433 2.52284,-0.31212 0.36897,-1.51154 2.38797,-0.91261 8.21293,-1.23506 -1.36322,-1.48777 -0.27079,-2.8329 -0.66042,-2.36781 -1.54048,-3.33468 -3.85196,0.68419 -7.09259,-1.50947 -1.43764,0.7829 -5.69526,-1.69964 z" data-name="EGYPT"/>
      <text xml:space="preserve" style="font-style:normal;font-variant:normal;font-weight:normal;font-stretch:normal;font-size:7.05556px;font-family:sans-serif;font-variant-caps:normal;font-variant-numeric:normal;font-variant-east-asian:normal;display:inline;opacity:1;fill:#000000;stroke:none;stroke-width:0.264999;stroke-dasharray:none;stroke-dashoffset:0;stroke-opacity:1" x="152.96626" y="124.24219" id="count_18" data-name="COUNT">100</text>
    </g>
    <g id="east_africa" data-name="EAST_AFRICA">
      <path id="east_africa_2" style="display:inline;opacity:1;fill:#ff6600;fill-opacity:1;stroke:#000000;stroke-width:0.265;stroke-dasharray:none;stroke-opacity:1" d="m 172.04221,125.8378 -8.21293,1.23506 -2.38797,0.91261 -0.36897,1.51154 -2.52284,0.31212 0.27853,0.42943 -0.12351,5.1077 -0.20773,3.40289 0.31212,0.23668 2.51251,1.72444 1.66863,3.16622 0.33435,3.46749 5.20123,1.12189 3.17758,0.74776 -1.11259,2.66857 -2.33061,2.26395 -1.11621,2.44584 0.33848,3.43959 -1.03404,2.07946 2.36213,1.59886 1.70842,3.14658 1.91461,2.23087 3.42615,0.45682 1.61282,-2.4076 -0.27905,-5.12269 -1.36891,-4.13256 2.08359,-3.43287 3.60443,-3.15691 2.67736,-2.91713 3.25717,-5.74797 1.04179,-4.20026 -3.43648,-0.20309 -2.92489,1.29914 -4.44314,-4.25969 -2.3399,-5.82135 z" data-name="EAST_AFRICA"/>
      <text xml:space="preserve" style="font-style:normal;font-variant:normal;font-weight:normal;font-stretch:normal;font-size:7.05556px;font-family:sans-serif;font-variant-caps:normal;font-variant-numeric:normal;font-variant-east-asian:normal;display:inline;opacity:1;fill:#000000;stroke:none;stroke-width:0.264999;stroke-dasharray:none;stroke-dashoffset:0;stroke-opacity:1" x="164.50861" y="143.81657" id="count_19" data-name="COUNT">100</text>
    </g>
    <g id="central_africa" data-name="CENTRAL_AFRICA">
      <path id="central_africa_2" style="display:inline;opacity:1;fill:#ff6600;fill-opacity:1;stroke:#000000;stroke-width:0.265;stroke-dasharray:none;stroke-opacity:1" d="m 149.2095,162.92494 c 0.0756,0.019 0.15381,0.0393 0.22841,0.0579 0.37996,0.0944 0.74511,0.18283 1.07435,0.25838 0.32924,0.0755 0.62257,0.13835 0.85886,0.18242 0.11815,0.022 0.22204,0.0394 0.30903,0.0512 0.087,0.0118 0.15718,0.0181 0.20774,0.0181 0.0506,0 0.11787,0.007 0.19998,0.0212 0.0821,0.014 0.17881,0.0349 0.28784,0.061 0.10904,0.0261 0.2304,0.0572 0.36174,0.0935 0.13133,0.0363 0.27268,0.0773 0.42168,0.12196 0.298,0.0894 0.62699,0.19372 0.9679,0.30541 0.3409,0.11169 0.69398,0.23071 1.04076,0.34985 0.69356,0.23827 1.36184,0.47655 1.85673,0.65525 0.4949,0.17871 0.81649,0.29818 0.81649,0.29818 l 6.39031,0.25579 1.59215,-2.28719 1.65881,-3.33623 -0.33848,-3.43959 1.11621,-2.44584 2.33061,-2.26395 1.11259,-2.66857 -3.17758,-0.74776 -5.20123,-1.12189 -0.33435,-3.46749 -1.66863,-3.16622 -2.51251,-1.72444 -0.31212,-0.23668 -0.009,0.14366 -2.98276,1.98128 c 0,0 -0.17117,0.18017 -0.42788,0.46147 -0.12836,0.14065 -0.27829,0.30667 -0.43874,0.48834 -0.16045,0.18168 -0.33115,0.37871 -0.50229,0.58188 -0.0856,0.10158 -0.17156,0.2047 -0.2558,0.30799 -0.0842,0.10329 -0.16679,0.20698 -0.24701,0.30954 -0.0802,0.10256 -0.15798,0.20396 -0.23151,0.30334 -0.0735,0.0994 -0.14305,0.19665 -0.20723,0.29042 -0.0642,0.0938 -0.12303,0.18404 -0.17518,0.26975 -0.0261,0.0429 -0.0503,0.0847 -0.0729,0.12506 -0.0226,0.0404 -0.0433,0.0792 -0.062,0.11679 -0.0187,0.0376 -0.0356,0.074 -0.0501,0.10852 -0.0145,0.0345 -0.0267,0.0676 -0.0367,0.0987 -0.01,0.0311 -0.0181,0.0604 -0.0233,0.0879 -0.005,0.0274 -0.008,0.053 -0.008,0.0765 v 3.96772 l -3.54965,1.12396 h -2.88665 l -0.0734,0.89194 -0.48317,1.96422 2.53886,4.57285 1.85829,3.1874 -1.53118,1.64589 z" data-name="CENTRAL_AFRICA"/>
      <text xml:space="preserve" style="font-style:normal;font-variant:normal;font-weight:normal;font-stretch:normal;font-size:7.05556px;font-family:sans-serif;font-variant-caps:normal;font-variant-numeric:normal;font-variant-east-asian:normal;display:inline;opacity:1;fill:#000000;stroke:none;stroke-width:0.264999;stroke-dasharray:none;stroke-dashoffset:0;stroke-opacity:1" x="151.88727" y="156.5741" id="count_20" data-name="COUNT">100</text>
    </g>
    <g id="south_africa" data-name="SOUTH_AFRICA">
      <path id="south_africa_2" style="display:inline;opacity:1;fill:#ff6600;fill-opacity:1;stroke:#000000;stroke-width:0.265;stroke-dasharray:none;stroke-opacity:1" d="m 175.85955,169.54417 -3.42615,-0.45682 -1.91461,-2.23087 -1.70842,-3.14658 -2.36213,-1.59886 -0.62477,1.25677 -1.59215,2.28719 -6.39031,-0.25579 c 0,0 -0.32159,-0.11947 -0.81649,-0.29818 -0.49489,-0.1787 -1.16317,-0.41698 -1.85673,-0.65525 -0.34678,-0.11914 -0.69986,-0.23816 -1.04076,-0.34985 -0.34091,-0.11169 -0.6699,-0.21606 -0.9679,-0.30541 -0.149,-0.0447 -0.29035,-0.0857 -0.42168,-0.12196 -0.13134,-0.0363 -0.2527,-0.0675 -0.36174,-0.0935 -0.10903,-0.0261 -0.20573,-0.047 -0.28784,-0.061 -0.0821,-0.014 -0.14943,-0.0212 -0.19998,-0.0212 -0.0506,0 -0.12075,-0.006 -0.20774,-0.0181 -0.087,-0.0118 -0.19088,-0.0291 -0.30903,-0.0512 -0.23629,-0.0441 -0.52962,-0.10688 -0.85886,-0.18242 -0.32924,-0.0755 -0.69439,-0.16395 -1.07435,-0.25838 -0.0746,-0.0185 -0.15284,-0.0389 -0.22841,-0.0579 l 1.26452,2.37763 -1.51309,3.40961 -0.31316,4.48552 2.34921,3.44888 0.29973,4.11035 1.92236,3.1259 0.62064,2.697 0.49919,3.2675 0.56689,1.66294 c 0,0 1.64696,1.30759 3.4184,1.18288 1.77139,-0.12471 4.6271,-1.11363 4.6271,-1.11363 l 3.81114,-1.11311 1.42214,-2.55747 1.03146,-2.74401 1.08624,-2.85668 1.74149,-3.38325 0.35864,-3.90984 2.01951,-3.32486 z" data-name="SOUTH_AFRICA"/>
      <text xml:space="preserve" style="font-style:normal;font-variant:normal;font-weight:normal;font-stretch:normal;font-size:7.05556px;font-family:sans-serif;font-variant-caps:normal;font-variant-numeric:normal;font-variant-east-asian:normal;display:inline;opacity:1;fill:#000000;stroke:none;stroke-width:0.264999;stroke-dasharray:none;stroke-dashoffset:0;stroke-opacity:1" x="154.11464" y="179.3186" id="count_21" data-name="COUNT">100</text>
    </g>
    <g id="madagascar" data-name="MADAGASCAR">
      <path style="opacity:1;fill:#ff6600;fill-opacity:1;stroke:#000000;stroke-width:0.265;stroke-dasharray:none;stroke-opacity:1" d="m 190.38007,164.97108 -2.20501,2.75724 -1.02728,-0.43847 -0.64794,2.59507 -2.39287,0.12471 h -2.25289 l -2.33098,2.99532 1.03438,2.04982 -0.7239,4.35112 -1.51385,1.76324 0.4929,2.94516 1.32473,2.09682 3.43956,-0.11252 2.28117,-0.70764 2.1534,-3.5435 1.11936,-4.60527 1.72927,-4.19958 v -3.00691 l 1.32232,-2.12258 z" id="madagascar_2" data-name="MADAGASCAR"/>
      <text xml:space="preserve" style="font-style:normal;font-variant:normal;font-weight:normal;font-stretch:normal;font-size:7.05556px;font-family:sans-serif;font-variant-caps:normal;font-variant-numeric:normal;font-variant-east-asian:normal;display:inline;opacity:1;fill:#000000;stroke:none;stroke-width:0.264999;stroke-dasharray:none;stroke-dashoffset:0;stroke-opacity:1" x="176.96442" y="178.00778" id="count_22" data-name="COUNT">100</text>
    </g>
  </g>
  <g id="north_america" style="display:inline" data-name="NORTH_AMERICA">
    <g id="northwest_ter" data-name="NORTHWEST_TER">
      <path id="northwest_ter_2" style="display:inline;fill:#ffff00;stroke:#000000;stroke-width:0.264583;stroke-opacity:1" d="m 73.39552,24.266736 -5.573303,2.687174 0.852661,5.581572 -3.03444,-0.705384 -2.726966,2.752804 -5.408972,-0.703833 -0.04909,1.18339 -5.067391,-1.437121 -6.062679,-4.186308 -5.634282,0.956531 -5.602242,0.54622 -5.621879,-0.592729 0.0801,4.243669 0.246496,6.054927 -1.210262,2.912484 1.331702,1.718241 37.887093,0.870231 2.761589,-2.759004 1.125512,-2.911967 6.358268,-3.237529 -0.555004,-3.649906 -2.01073,0.944128 -2.561601,-0.174149 -1.963705,-3.744991 z" data-name="NORTHWEST_TER"/>
      <text xml:space="preserve" style="font-style:normal;font-variant:normal;font-weight:normal;font-stretch:normal;font-size:7.05556px;font-family:sans-serif;font-variant-caps:normal;font-variant-numeric:normal;font-variant-east-asian:normal;display:inline;opacity:1;fill:#000000;stroke:none;stroke-width:0.264999;stroke-dasharray:none;stroke-dashoffset:0;stroke-opacity:1" x="41.344837" y="42.253166" id="count_23" data-name="COUNT">100</text>
    </g>
    <g id="alaska" data-name="ALASKA">
      <path id="alaska_2" style="display:inline;fill:#ffff00;stroke:#000000;stroke-width:0.264583;stroke-opacity:1" d="m 35.66604,60.440238 0.955497,-0.747241 -1.649511,-2.96416 1.725476,-2.80758 -2.470134,-3.024622 -0.365869,-2.588473 -2.968294,-1.76785 -2.309937,-2.98018 1.210262,-2.912484 -0.246496,-6.054927 -0.0801,-4.243669 -2.397786,-0.252698 -7.045048,-2.185396 -8.756572,2.427759 1.438155,3.028239 -2.7677893,3.062345 0.7539593,3.014803 -1.7843874,0.220658 -2.0975464,4.034896 2.3662639,2.982764 3.2370119,1.153935 -3.8426597,4.46226 2.4510127,-0.116789 2.389519,-0.304891 3.695898,-2.864942 1.876888,-2.033467 0.471289,1.315682 3.046843,-0.449068 1.656746,-0.824756 0.730705,1.610754 2.320788,0.863513 2.104265,-0.111104 0.551904,1.433504 1.512052,2.351795 -0.112137,0.871781 3.321761,4.860169 z" data-name="ALASKA"/>
      <text xml:space="preserve" style="font-style:normal;font-variant:normal;font-weight:normal;font-stretch:normal;font-size:7.05556px;font-family:sans-serif;font-variant-caps:normal;font-variant-numeric:normal;font-variant-east-asian:normal;display:inline;opacity:1;fill:#000000;stroke:none;stroke-width:0.264999;stroke-dasharray:none;stroke-dashoffset:0;stroke-opacity:1" x="13.464296" y="41.831367" id="count_24" data-name="COUNT">100</text>
    </g>
    <g id="alberta" data-name="ALBERTA">
      <path id="alberta_2" style="display:inline;fill:#ffff00;stroke:#000000;stroke-width:0.264583;stroke-opacity:1" d="m 58.468783,45.934147 -28.553813,-0.655774 0.978235,1.261939 2.968294,1.76785 0.365869,2.588473 2.470134,3.024622 -1.725476,2.80758 1.649511,2.96416 -0.955497,0.747241 0.993221,1.418519 0.288871,3.347082 0.304891,0.428398 21.27002,-0.07493 z" data-name="ALBERTA"/>
      <text xml:space="preserve" style="font-style:normal;font-variant:normal;font-weight:normal;font-stretch:normal;font-size:7.05556px;font-family:sans-serif;font-variant-caps:normal;font-variant-numeric:normal;font-variant-east-asian:normal;display:inline;opacity:1;fill:#000000;stroke:none;stroke-width:0.264999;stroke-dasharray:none;stroke-dashoffset:0;stroke-opacity:1" x="40.828667" y="58.834045" id="count_25" data-name="COUNT">100</text>
    </g>
    <g id="ontario" data-name="ONTARIO">
      <path id="ontario_2" style="display:inline;fill:#ffff00;stroke:#000000;stroke-width:0.264583;stroke-opacity:1" d="m 58.468783,45.934147 0.05426,19.625159 9.275919,-0.03256 7.098792,5.092195 2.305286,0.500228 -0.406694,-8.675439 -1.068152,-0.691948 -0.962732,-3.553788 -2.289266,-2.589506 -3.317627,-0.911572 -2.795178,-3.110405 -0.174666,-3.826123 1.613338,-1.611788 z" data-name="ONTARIO"/>
      <text xml:space="preserve" style="font-style:normal;font-variant:normal;font-weight:normal;font-stretch:normal;font-size:7.05556px;font-family:sans-serif;font-variant-caps:normal;font-variant-numeric:normal;font-variant-east-asian:normal;display:inline;opacity:1;fill:#000000;stroke:none;stroke-width:0.264999;stroke-dasharray:none;stroke-dashoffset:0;stroke-opacity:1" x="60.564541" y="62.931358" id="count_26" data-name="COUNT">100</text>
    </g>
    <g id="quebec" data-name="QUEBEC">
      <path id="quebec_2" style="display:inline;fill:#ffff00;stroke:#000000;stroke-width:0.264583;stroke-opacity:1" d="m 76.796346,62.443734 0.406694,8.675439 1.692403,0.366903 3.175516,1.087272 2.109949,-0.589628 2.301152,-2.425692 2.570385,-1.575097 -1.445389,-0.10077 2.962093,-0.799951 2.037085,-0.841292 3.106787,-1.997294 3.207039,-2.904216 -1.708939,-1.811775 -0.13746,-1.702739 -2.260844,-1.969905 -4.188374,-5.978447 -1.805058,3.003434 -0.998906,-4.108276 -1.647961,-2.831352 -5.376933,-0.12609 0.898653,1.873787 -2.058789,2.7311 0.868164,1.808675 -0.290421,3.093351 -1.684652,2.057239 0.321427,3.261299 -1.514119,2.153357 z" data-name="QUEBEC"/>
      <text xml:space="preserve" style="font-style:normal;font-variant:normal;font-weight:normal;font-stretch:normal;font-size:7.05556px;font-family:sans-serif;font-variant-caps:normal;font-variant-numeric:normal;font-variant-east-asian:normal;display:inline;opacity:1;fill:#000000;stroke:none;stroke-width:0.264999;stroke-dasharray:none;stroke-dashoffset:0;stroke-opacity:1" x="81.198959" y="62.98954" id="count_27" data-name="COUNT">100</text>
    </g>
    <g id="greenland" data-name="GREENLAND">
      <path style="display:inline;fill:#ffff00;stroke:#000000;stroke-width:0.264583;stroke-opacity:1" d="m 85.52305,25.415531 -2.021615,0.03007 -0.359047,1.191328 1.313272,0.86903 -1.321405,0.879811 0.54352,1.749197 3.048029,0.637543 1.140542,0.250007 1.227616,-1.430885 1.284317,1.446718 1.311233,0.467717 1.289478,2.297946 1.018307,2.859373 1.056915,0.807583 -1.574673,0.948777 1.327516,1.222248 0.507584,2.35037 v 1.452796 l -1.161939,0.72827 0.967425,1.439839 0.171167,1.847324 0.839489,0.922083 1.576617,-0.198313 -1.093255,1.337974 1.215758,1.080752 0.248639,1.626338 3.99255,1.447665 0.57396,-3.72759 0.0219,-1.104916 1.77542,-2.865729 0.58409,-1.358582 0.73788,-1.418522 0.24591,1.346735 4.38778,-3.233642 -0.0297,-1.247011 0.90622,0.500026 2.14823,-0.865987 2.17506,-1.499931 -1.09754,-1.506029 -1.26962,-0.751319 1.26389,-0.614836 1.13369,1.063379 0.55093,0.846921 2.02828,-1.32655 -0.79506,-2.361176 -1.04896,-1.537917 -0.81903,-1.172747 2.35584,1.214893 0.9283,-1.233062 0.60351,-1.551408 -0.87892,-0.957612 -1.2347,-0.70862 1.47639,-1.098047 v -1.977528 l -0.75047,-0.893072 -0.08,-1.447654 0.60201,-1.796198 1.89282,-1.218638 0.46464,-1.031631 -2.9048,-0.152648 -1.68208,0.58761 -3.76998,0.568118 1.40908,-1.348458 2.5905,-0.692689 -0.90985,-0.782643 h -2.07862 l -1.58071,-0.947712 -1.72168,0.180369 -1.11161,-1.516617 -2.02798,-0.531462 -4.01916,0.477775 -1.49965,1.719502 -2.107992,0.269585 -0.588484,1.865757 -2.565487,0.734578 -0.991674,0.63377 c 0,0 -1.065893,-0.987444 -2.062898,-0.478102 -0.997006,0.509342 -1.427298,0.690212 -1.427298,0.690212 l -1.757735,0.677293 -1.182952,0.701973 -0.989912,1.510798 -1.945244,1.049947 0.05576,1.590907 -2.547072,0.303216 0.202821,0.572555" id="greenland_2" data-name="GREENLAND"/>
      <text xml:space="preserve" style="font-style:normal;font-variant:normal;font-weight:normal;font-stretch:normal;font-size:7.05556px;font-family:sans-serif;font-variant-caps:normal;font-variant-numeric:normal;font-variant-east-asian:normal;display:inline;opacity:1;fill:#000000;stroke:none;stroke-width:0.264999;stroke-dasharray:none;stroke-dashoffset:0;stroke-opacity:1" x="97.429962" y="33.973728" id="count_28" data-name="COUNT">100</text>
    </g>
    <g id="western_us" data-name="WESTERN_US">
      <path id="western_us_2" style="display:inline;fill:#ffff00;stroke:#000000;stroke-width:0.264583;stroke-opacity:1" d="m 63.262288,65.542769 -26.009265,0.09147 1.615406,2.269629 -0.976168,1.49965 -0.35295,3.644738 -1.434021,4.2323 0.1757,4.008541 0.722436,4.27054 2.936772,4.290695 0.318843,1.400431 3.946013,-0.567407 4.511869,-0.235645 2.78691,1.985409 1.846916,-3.133659 2.956925,-1.128097 -0.610299,-3.331579 3.166215,-0.368453 0.515731,-3.995105 4.74183,-0.374138 z" data-name="WESTERN_US"/>
      <text xml:space="preserve" style="font-style:normal;font-variant:normal;font-weight:normal;font-stretch:normal;font-size:7.05556px;font-family:sans-serif;font-variant-caps:normal;font-variant-numeric:normal;font-variant-east-asian:normal;display:inline;opacity:1;fill:#000000;stroke:none;stroke-width:0.264999;stroke-dasharray:none;stroke-dashoffset:0;stroke-opacity:1" x="40.65324" y="80.409576" id="count_29" data-name="COUNT">100</text>
    </g>
    <g id="eastern_us" data-name="EASTERN_US">
      <path id="eastern_us_2" style="display:inline;fill:#ffff00;stroke:#000000;stroke-width:0.264583;stroke-opacity:1" d="m 63.262288,65.542769 0.858863,14.559318 -4.74183,0.374138 -0.515731,3.995105 -3.166215,0.368453 0.610299,3.331579 -2.956925,1.128097 -1.846916,3.133659 0.01189,0.0088 3.610115,2.027783 1.098124,1.177706 3.700033,-1.542025 h 5.429126 l 1.401981,-1.46606 1.695504,0.992187 3.761528,0.170532 0.607198,2.516643 1.19941,3.429764 2.614827,-1.475362 -1.321366,-4.969722 2.094446,-3.041158 4.069519,-3.664893 0.21239,-1.700154 1.470711,-3.833875 2.367297,-2.134237 2.930571,-4.461226 0.761194,1.933732 1.763716,-0.582393 1.893425,-4.020944 -0.112138,-2.095479 -0.694531,-1.508952 -3.016354,-0.210839 -2.570385,1.575097 -2.301152,2.425692 -2.109949,0.589628 -3.175516,-1.087272 -3.997689,-0.867131 -7.098792,-5.092195 z" data-name="EASTERN_US"/>
      <text xml:space="preserve" style="font-style:normal;font-variant:normal;font-weight:normal;font-stretch:normal;font-size:7.05556px;font-family:sans-serif;font-variant-caps:normal;font-variant-numeric:normal;font-variant-east-asian:normal;display:inline;opacity:1;fill:#000000;stroke:none;stroke-width:0.264999;stroke-dasharray:none;stroke-dashoffset:0;stroke-opacity:1" x="66.2789" y="85.664284" id="count_30" data-name="COUNT">100</text>
    </g>
    <g id="central_america" data-name="CENTRAL_AMERICA">
      <path id="central_america_2" style="display:inline;fill:#ffff00;stroke:#000000;stroke-width:0.264583;stroke-opacity:1" d="m 56.223958,95.647392 -1.098124,-1.177706 -3.610115,-2.027783 -2.798796,-1.994194 -4.511869,0.235645 -3.946013,0.567407 0.963766,4.2323 1.35909,1.646411 3.994071,6.192908 -2.036568,-7.866191 2.437578,5.081861 1.211295,3.68711 1.254704,2.01538 5.017265,0.96274 1.927531,2.81998 0.520898,3.82767 2.464449,2.88251 1.861902,1.72393 h 2.685107 l 1.35599,-3.15175 -3.565674,0.17622 -0.507979,-1.95079 1.109493,-1.87533 1.102775,-1.21802 -0.620634,-2.23655 -0.649056,-3.29438 1.226282,-2.3828 -0.0739,-1.78232 -1.572513,-0.0729 -2.273247,2.40606 -2.693375,-0.95964 -1.075904,-2.943486 -0.04393,-3.280419 z" data-name="CENTRAL_AMERICA"/>
      <text xml:space="preserve" style="font-style:normal;font-variant:normal;font-weight:normal;font-stretch:normal;font-size:7.05556px;font-family:sans-serif;font-variant-caps:normal;font-variant-numeric:normal;font-variant-east-asian:normal;display:inline;opacity:1;fill:#000000;stroke:none;stroke-width:0.264999;stroke-dasharray:none;stroke-dashoffset:0;stroke-opacity:1" x="43.649063" y="103.09322" id="count_31" data-name="COUNT">100</text>
    </g>
  </g>
  <g id="euope" style="display:inline" data-name="EUOPE">
    <g id="great_britain" data-name="GREAT_BRITAIN">
      <path style="opacity:1;fill:#0000ff;stroke:#000000;stroke-width:0.265;stroke-dasharray:none" d="m 120.62212,58.562668 -2.13574,0.713817 -1.19222,2.741517 1.90309,0.707586 -1.05623,1.142425 0.2192,1.776791 2.36297,0.800299 -0.80033,1.431089 0.91319,3.027304 -0.75463,0.411139 -0.75728,-0.876435 -2.08725,-2.02882 -2.62699,1.126678 -1.73329,2.720816 0.28737,2.832489 0.31462,1.856737 -3.36928,2.112516 3.0202,1.708025 3.05068,-0.772911 c 0,0 1.6415,-1.490253 2.37752,-1.490253 0.73602,0 3.60035,0.116033 3.60035,0.116033 l -1.45844,2.335565 c 0,0 -3.78621,2.344049 -3.01615,2.344049 0.77006,0 3.18867,-0.317553 3.18867,-0.317553 l 3.60781,-1.846341 c 0,0 0.42652,0.852926 2.1287,0 1.70218,-0.852927 3.63029,-1.546474 3.63029,-1.546474 0,0 0.98694,-1.029388 0.69167,-2.073071 -0.29527,-1.043686 -0.61084,-2.917357 -0.61084,-2.917357 l -2.607,-2.077895 -0.28323,-2.763864 -0.96402,-1.519766 -1.64778,-1.921209 -1.28053,-2.037334 1.22112,-1.988756 0.77758,-3.0695 -1.56774,-0.09304 z" id="great_britain_2" data-name="GREAT_BRITAIN"/>
      <text xml:space="preserve" style="font-style:normal;font-variant:normal;font-weight:normal;font-stretch:normal;font-size:7.05556px;font-family:sans-serif;font-variant-caps:normal;font-variant-numeric:normal;font-variant-east-asian:normal;display:inline;opacity:1;fill:#000000;stroke:none;stroke-width:0.264999;stroke-dasharray:none;stroke-dashoffset:0;stroke-opacity:1" x="115.55597" y="77.510391" id="count_32" data-name="COUNT">100</text>
    </g>
    <g id="iceland" data-name="ICELAND">
      <path style="opacity:1;fill:#0000ff;stroke:#000000;stroke-width:0.265;stroke-dasharray:none" d="m 124.04068,45.334028 -4.0082,0.348324 0.35273,2.710182 -0.44401,1.460482 2.9315,1.873313 -0.99106,2.592925 c 0,0 1.79355,0.363572 3.0598,0.363572 1.26625,0 3.79089,0 3.79089,0 l 2.44745,-0.561618 1.93438,-0.43706 1.66951,-2.451962 1.28022,-2.230763 -1.3778,-3.083203 -2.39292,-1.504966 -4.1294,0.176366 -1.07778,1.280999 -4.54296,0.03062 z" id="iceland_2" data-name="ICELAND"/>
      <text xml:space="preserve" style="font-style:normal;font-variant:normal;font-weight:normal;font-stretch:normal;font-size:7.05556px;font-family:sans-serif;font-variant-caps:normal;font-variant-numeric:normal;font-variant-east-asian:normal;display:inline;opacity:1;fill:#000000;stroke:none;stroke-width:0.264999;stroke-dasharray:none;stroke-dashoffset:0;stroke-opacity:1" x="122.26853" y="52.115673" id="count_33" data-name="COUNT">100</text>
    </g>
    <g id="northern_europe" data-name="NORTHERN_EUROPE">
      <path id="northern_europe_2" style="display:inline;opacity:1;fill:#0000ff;stroke:#000000;stroke-width:0.265;stroke-dasharray:none" d="m 144.7214,63.344971 -1.0387,0.658357 -0.33486,2.451014 -1.47226,4.000272 c 0,0 0.51879,0.697792 -0.27595,1.875855 -0.79479,1.178062 -3.17862,2.726965 -3.17862,2.726965 l -0.86765,1.719275 -1.74253,2.23914 -1.04438,1.616955 0.74052,1.537891 3.95635,4.745964 1.29398,1.559594 -0.3297,0.596346 0.39326,0.01964 1.00201,-2.131653 h 3.20445 l 2.61121,-2.081526 3.60392,-0.243396 0.19172,2.702677 3.11764,0.74104 1.38803,-1.741496 0.7462,-2.874243 0.98547,-1.465543 -0.9772,-0.569991 2.35025,-3.640605 1.83709,-2.265495 -0.24804,-3.374988 -2.01487,-3.996138 -2.89905,-1.850533 -0.16588,-0.198954 0.12609,0.646989 -3.61786,0.506945 -1.88361,1.44384 -1.55598,-0.448552 -2.79776,-1.650545 z" data-name="NORTHERN_EUROPE"/>
      <text xml:space="preserve" style="font-style:normal;font-variant:normal;font-weight:normal;font-stretch:normal;font-size:7.05556px;font-family:sans-serif;font-variant-caps:normal;font-variant-numeric:normal;font-variant-east-asian:normal;display:inline;opacity:1;fill:#000000;stroke:none;stroke-width:0.264999;stroke-dasharray:none;stroke-dashoffset:0;stroke-opacity:1" x="141.97006" y="79.134232" id="count_34" data-name="COUNT">100</text>
    </g>
    <g id="western_europe" data-name="WESTERN_EUROPE">
      <path id="western_europe_2" style="display:inline;opacity:1;fill:#0000ff;stroke:#000000;stroke-width:0.265;stroke-dasharray:none" d="m 139.66589,96.566199 0.23048,-2.047421 -0.60875,-1.219047 -0.008,-2.152323 1.47743,-2.671155 -1.29398,-1.559594 -3.95635,-4.745964 -0.74052,-1.537891 -0.6997,1.083655 -1.80402,0.81132 -0.88935,0.914673 -1.22163,0.176733 h -1.88774 l -0.5085,2.218986 -1.65985,0.939478 -1.98024,-0.333313 -1.01751,1.92133 1.49914,3.465421 1.65519,1.64176 0.24081,2.276347 -2.45669,0.548287 -4.7408,-0.472839 -1.3069,1.490348 1.00511,2.533696 0.0889,2.193144 -0.17621,4.55528 -0.786,0.91467 1.69292,0.90796 c 0,0 2.97728,0.21176 3.72122,0.69608 0.74395,0.48433 2.8453,2.37402 2.8453,2.37402 l 2.77089,-0.54984 1.75493,-3.71554 3.46336,-2.15852 -1.14153,-3.74189 1.03146,-3.349668 0.68833,-1.144633 3.32434,-0.0987 z" data-name="WESTERN_EUROPE"/>
      <text xml:space="preserve" style="font-style:normal;font-variant:normal;font-weight:normal;font-stretch:normal;font-size:7.05556px;font-family:sans-serif;font-variant-caps:normal;font-variant-numeric:normal;font-variant-east-asian:normal;display:inline;opacity:1;fill:#000000;stroke:none;stroke-width:0.264999;stroke-dasharray:none;stroke-dashoffset:0;stroke-opacity:1" x="119.38775" y="103.91806" id="count_35" data-name="COUNT">100</text>
    </g>
    <g id="southern_europe" data-name="SOUTHERN_EUROPE">
      <path id="southern_europe_2" style="display:inline;opacity:1;fill:#0000ff;stroke:#000000;stroke-width:0.265;stroke-dasharray:none" d="m 157.67151,81.998096 -0.98547,1.465543 -0.7462,2.874243 -1.38803,1.741496 -3.11764,-0.74104 -0.19172,-2.702677 -3.60392,0.243396 -2.61121,2.081526 h -3.20445 l -1.00201,2.131653 -0.39326,-0.01964 -1.14773,2.074809 0.008,2.152323 0.60875,1.219047 -0.23048,2.047421 0.0284,-0.0031 c 0,0 1.22064,1.437709 2.03191,2.070675 0.81128,0.632958 2.21589,1.737359 2.21589,1.737359 l 1.28106,2.01952 -0.17415,1.35599 -1.63918,0.92811 -1.42317,-0.17415 c 0,0 -1.80288,-0.57538 -0.9617,0.42219 0.84117,0.99761 1.97973,2.72594 1.97973,2.72594 l 1.19527,1.12758 1.23559,-2.53112 1.60197,-1.13584 0.42374,-2.56315 1.01131,-0.57981 0.62219,0.005 0.2744,-1.82004 -3.34192,-2.436029 0.17622,-1.551844 0.61392,-3.200321 2.60552,3.069063 1.26246,1.925464 0.35036,3.062347 1.72444,1.60197 0.1354,3.24528 2.34094,0.50798 1.80971,1.94613 1.16427,-0.59117 -2.00918,-3.00086 0.83251,-0.94154 -0.63046,-2.28668 0.61495,-0.1571 2.12597,-0.0372 0.30231,-0.4749 -0.14056,-2.633435 2.61741,-2.798795 0.21291,0.09405 -0.31678,-1.721859 1.47174,-2.899048 0.077,-0.04134 -1.01389,-0.907438 -0.62373,-3.538285 -2.40451,-3.422531 z" data-name="SOUTHERN_EUROPE"/>
      <text xml:space="preserve" style="font-style:normal;font-variant:normal;font-weight:normal;font-stretch:normal;font-size:7.05556px;font-family:sans-serif;font-variant-caps:normal;font-variant-numeric:normal;font-variant-east-asian:normal;display:inline;opacity:1;fill:#000000;stroke:none;stroke-width:0.264999;stroke-dasharray:none;stroke-dashoffset:0;stroke-opacity:1" x="147.60518" y="95.834152" id="count_36" data-name="COUNT">100</text>
    </g>
    <g id="russia" data-name="RUSSIA">
      <path id="russia_2" style="display:inline;opacity:1;fill:#0000ff;stroke:#000000;stroke-width:0.265;stroke-dasharray:none" d="m 191.67771,34.926034 -2.66961,0.09715 -0.65784,1.933732 -4.28863,0.563273 -5.50819,1.561662 -2.52853,-1.797823 -1.73684,3.623552 -1.64228,2.36678 -2.97191,1.963188 -2.66444,-1.313615 -0.50384,-1.946135 4.2168,-0.16123 1.73477,-0.338997 2.30736,-3.278353 -3.65766,-0.289388 -4.44779,-1.72806 -3.12539,-0.158647 -0.21756,1.011308 -1.05317,3.609599 0.24908,3.923791 0.98961,3.897437 -0.74518,2.557983 0.44597,3.045809 -1.46709,0.823206 0.73897,1.34307 -2.2934,0.617017 -1.94717,0.155029 v 1.392163 l 0.71055,1.900659 -2.85719,0.06563 0.37104,2.517159 -1.1405,2.00918 0.23616,1.209229 0.16588,0.198954 2.89905,1.850533 2.01487,3.996138 0.24804,3.374988 -1.83709,2.265495 -2.35025,3.640605 2.63188,1.535306 2.40451,3.422531 0.62373,3.538285 1.01389,0.907438 2.08773,-1.11156 1.89136,1.736845 1.48311,-0.281637 1.3255,-1.763716 -1.83916,-1.69137 5.42396,-1.802991 c 0,0 2.69273,0.182766 1.2361,1.014409 -1.45664,0.83164 -3.74293,2.765206 -3.74293,2.765206 l 2.00143,1.962154 1.93063,0.818038 1.04283,2.805513 0.81856,1.223181 0.92449,-0.211873 3.01532,-0.35295 2.67219,-0.941545 0.0656,0.05943 -0.008,-0.121439 0.17415,-2.732133 0.76326,-1.512053 -2.09031,-2.4691 v -2.328023 l -1.20354,-1.687752 v -2.527495 l 1.65313,-0.648539 0.632,-0.456819 -0.2005,-0.15813 -0.46251,-4.328418 -0.50333,-4.037997 2.1854,-1.485697 4.34134,-1.450041 h 3.24476 l 3.04788,-4.194576 0.40049,-2.392619 c 0,0 -1.6207,-2.983438 -2.53266,-3.582727 -0.91197,-0.599282 0.69556,-1.779736 0.69556,-1.779736 v -3.554822 l 0.8692,-3.025655 -0.76068,-3.029789 v -4.562512 l 1.96474,-3.935161 -0.35192,-3.443717 z" data-name="RUSSIA"/>
      <text xml:space="preserve" style="font-style:normal;font-variant:normal;font-weight:normal;font-stretch:normal;font-size:7.05556px;font-family:sans-serif;font-variant-caps:normal;font-variant-numeric:normal;font-variant-east-asian:normal;display:inline;opacity:1;fill:#000000;stroke:none;stroke-width:0.264999;stroke-dasharray:none;stroke-dashoffset:0;stroke-opacity:1" x="169.33299" y="67.510384" id="count_37" data-name="COUNT">100</text>
    </g>
    <g id="scandanavia" data-name="SCANDANAVIA">
      <path id="scandanavia_2" style="display:inline;opacity:1;fill:#0000ff;stroke:#000000;stroke-width:0.265;stroke-dasharray:none" d="m 163.53369,36.023124 -0.0961,-0.0047 -1.28158,-1.142566 -2.82721,0.176217 -2.00867,-0.526583 -4.65449,0.849561 0.0791,1.761649 -2.34714,0.50798 -1.88154,2.991548 -2.41122,1.81436 -0.35295,3.03444 -2.93419,1.813843 -0.30489,1.422135 -1.8526,0.678512 -1.79214,2.276347 0.30851,3.224609 0.79065,2.616378 c 0,0 0.96826,-0.228076 1.14463,0.682645 0.17636,0.910717 2.72955,1.820561 2.72955,1.820561 h 1.82314 l 1.75597,3.417879 1.97972,2.101164 1.71773,-2.399337 0.8816,-4.458126 1.18235,-0.657324 -0.17621,-3.156913 -0.85783,-2.571419 1.5875,-2.763139 2.19883,-1.317749 1.08262,1.581299 -2.68355,2.45463 0.90175,2.032434 0.56741,1.243852 3.01377,-0.806152 2.85822,0.06046 0.061,0.110588 1.46709,-0.823206 -0.44597,-3.045809 0.74518,-2.557983 -0.98961,-3.897437 -0.24908,-3.923791 1.05317,-3.609599 z" data-name="SCANDANAVIA"/>
      <text xml:space="preserve" style="font-style:normal;font-variant:normal;font-weight:normal;font-stretch:normal;font-size:7.05556px;font-family:sans-serif;font-variant-caps:normal;font-variant-numeric:normal;font-variant-east-asian:normal;display:inline;opacity:1;fill:#000000;stroke:none;stroke-width:0.264999;stroke-dasharray:none;stroke-dashoffset:0;stroke-opacity:1" x="148.65289" y="45.833515" id="count_38" data-name="COUNT">100</text>
    </g>
  </g>
  <g id="south_america" style="display:inline" data-name="SOUTH_AMERICA">
    <g id="venezuela" data-name="VENEZUELA">
      <path id="venezuela_2" style="fill:#ff0000;stroke:#000000;stroke-width:0.264583;stroke-opacity:1" d="m 72.053483,111.387 -3.67161,1.55133 -3.391008,1.17977 -2.43551,5.61826 0.428397,2.8112 -1.754931,2.18695 0.350366,0.1943 1.540474,1.72651 3.110405,0.77566 1.866036,0.0796 1.746663,1.47226 0.965833,-0.0791 2.31407,-0.17622 0.736906,-1.53479 0.08837,-2.64221 1.25367,-0.95188 1.401982,0.95239 1.741496,-0.22324 -0.0016,-2.67115 1.707906,0.42891 0.711068,-0.7214 1.560628,-0.62115 1.897042,0.40772 0.695565,1.95854 1.344621,0.99374 3.838525,-0.92708 0.306441,-2.47168 -0.01395,-2.38642 -0.02325,-0.0258 h -1.637109 l -2.564701,-2.70371 -2.632398,-0.77824 -0.324528,-1.7198 -1.681034,0.22635 -2.923853,-0.0677 -1.881539,-0.22841 -2.602425,-0.56275 z" data-name="VENEZUELA"/>
      <text xml:space="preserve" style="font-style:normal;font-variant:normal;font-weight:normal;font-stretch:normal;font-size:7.05556px;font-family:sans-serif;font-variant-caps:normal;font-variant-numeric:normal;font-variant-east-asian:normal;display:inline;opacity:1;fill:#000000;stroke:none;stroke-width:0.264999;stroke-dasharray:none;stroke-dashoffset:0;stroke-opacity:1" x="66.550011" y="121.02509" id="count_39" data-name="COUNT">100</text>
    </g>
    <g id="brazil" data-name="BRAZIL">
      <path id="brazil_2" style="fill:#ff0000;stroke:#000000;stroke-width:0.264583;stroke-opacity:1" d="m 90.391382,118.31784 0.01395,2.38642 -0.306441,2.47168 -3.838525,0.92708 -1.344621,-0.99374 -0.695565,-1.95854 -1.897042,-0.40772 -1.560628,0.62115 -0.711068,0.7214 -1.707906,-0.42891 0.0016,2.67115 -1.741496,0.22324 -1.401982,-0.95239 -1.25367,0.95188 -0.08837,2.64221 -0.736906,1.53479 -2.31407,0.17622 -0.965833,0.0791 -0.758093,-0.63923 -0.923975,1.55184 -1.769401,1.20406 0.540536,2.4598 1.723926,2.32234 2.123384,1.17254 1.600936,-1.22422 1.967839,1.57717 1.679484,0.293 2.260327,-0.40566 3.111438,2.1792 2.292366,0.94619 1.890324,0.13126 0.390674,1.87017 1.611788,0.63407 1.073836,3.31918 0.952914,2.25981 2.837036,5.49475 -0.577226,1.79989 -1.847949,2.55024 0.455786,1.5384 2.678906,1.24024 0.512114,1.15497 -1.182874,0.88986 0.199471,1.77302 1.620056,-0.21859 4.619873,-7.70082 -0.02532,-3.41271 2.182305,-1.80144 3.06492,-0.12454 2.39572,-1.27796 0.99064,-2.66547 1.42575,-1.25005 -0.6506,-1.74925 0.74311,-1.24902 0.70745,-3.29386 1.01595,-2.87992 2.17713,-2.1637 -0.32608,-5.42912 -2.61844,-0.79272 -3.64371,-1.70119 -2.67218,-0.93948 -4.138258,-1.33686 -2.006596,0.47904 -0.869714,-3.09232 -1.765267,-2.13941 -3.106271,-0.44751 z" data-name="BRAZIL"/>
      <text xml:space="preserve" style="font-style:normal;font-variant:normal;font-weight:normal;font-stretch:normal;font-size:7.05556px;font-family:sans-serif;font-variant-caps:normal;font-variant-numeric:normal;font-variant-east-asian:normal;display:inline;opacity:1;fill:#000000;stroke:none;stroke-width:0.264999;stroke-dasharray:none;stroke-dashoffset:0;stroke-opacity:1" x="88.868195" y="137.89716" id="count_40" data-name="COUNT">100</text>
    </g>
    <g id="peru" data-name="PERU">
      <path id="peru_2" style="display:inline;fill:#ff0000;stroke:#000000;stroke-width:0.264583;stroke-opacity:1" d="m 61.228821,124.73451 -0.658358,0.82062 -1.478979,3.48195 1.104325,1.23559 -0.200505,2.8453 3.711402,5.24309 3.672644,5.1692 5.003829,3.61011 0.131258,0.4098 2.585372,-0.37776 0.03772,-0.0346 0.515214,1.25212 -0.262517,1.25935 2.43086,1.40509 2.150773,-0.89556 2.537829,0.86455 1.145667,0.66146 1.37511,-0.79427 2.223637,1.30121 1.142049,1.32137 -0.705384,1.48983 -0.310575,1.464 1.093473,0.6258 1.592151,-0.61857 1.088823,-1.06608 0.763777,0.37362 0.529684,-1.65262 -2.837036,-5.49475 -0.952914,-2.25981 -1.073836,-3.31918 -1.611788,-0.63407 -0.390674,-1.87017 -1.890324,-0.13126 -2.292366,-0.94619 -3.111438,-2.1792 -2.260327,0.40566 -1.679484,-0.293 -0.709518,-0.56844 -1.258321,-1.00873 -1.600936,1.22422 -2.123384,-1.17254 -1.723926,-2.32234 -0.540536,-2.4598 1.769401,-1.20406 0.923975,-1.55184 -0.98857,-0.83303 -1.866036,-0.0796 -3.110405,-0.77566 -1.540474,-1.72651 z" data-name="PERU"/>
      <text xml:space="preserve" style="font-style:normal;font-variant:normal;font-weight:normal;font-stretch:normal;font-size:7.05556px;font-family:sans-serif;font-variant-caps:normal;font-variant-numeric:normal;font-variant-east-asian:normal;display:inline;opacity:1;fill:#000000;stroke:none;stroke-width:0.264999;stroke-dasharray:none;stroke-dashoffset:0;stroke-opacity:1" x="71.065018" y="145.87137" id="count_41" data-name="COUNT">100</text>
    </g>
    <g id="argentina" data-name="ARGENTINA">
      <path id="argentina_2" style="display:inline;fill:#ff0000;stroke:#000000;stroke-width:0.264583;stroke-opacity:1" d="m 91.91842,155.78171 -0.763777,-0.37362 -1.088823,1.06608 -1.592151,0.61857 -1.093473,-0.6258 0.310575,-1.464 0.705384,-1.48983 -1.142049,-1.32137 -2.223637,-1.30121 -1.37511,0.79427 -1.145667,-0.66146 -2.537829,-0.86455 -2.150773,0.89556 -2.43086,-1.40509 0.262517,-1.25935 -0.515214,-1.25212 -0.03772,0.0346 -2.585372,0.37776 1.39268,4.35064 -1.30328,3.20393 0.68833,4.95681 -1.369942,4.70204 0.67231,2.50217 -1.080037,5.10356 0.409794,2.19108 0.236161,2.66858 -0.614432,3.52019 0.806669,2.43758 1.208711,3.72484 1.570964,2.21692 4.292244,2.06395 0.303858,1.3715 1.856217,0.1695 3.042192,1.1839 1.669149,-0.0672 2.665987,-1.11414 -3.509864,-2.64118 -2.532662,-1.35289 -0.850077,-4.30672 1.056266,-4.7966 -1.016475,-2.3828 1.209745,-3.20136 -0.734322,-1.36012 2.496489,-0.12299 2.091862,-2.47375 3.173966,-0.81081 0.604614,-1.5353 -1.283642,-2.24328 0.891935,-1.03766 2.01228,0.62064 0.114205,-0.0155 -0.199471,-1.77302 1.182874,-0.88986 -0.512114,-1.15497 -2.678906,-1.24024 -0.455786,-1.5384 1.847949,-2.55024 z" data-name="ARGENTINA"/>
      <text xml:space="preserve" style="font-style:normal;font-variant:normal;font-weight:normal;font-stretch:normal;font-size:7.05556px;font-family:sans-serif;font-variant-caps:normal;font-variant-numeric:normal;font-variant-east-asian:normal;display:inline;opacity:1;fill:#000000;stroke:none;stroke-width:0.264999;stroke-dasharray:none;stroke-dashoffset:0;stroke-opacity:1" x="74.602615" y="166.35921" id="count_42" data-name="COUNT">100</text>
    </g>
  </g>
</svg>
